<?xml version="1.0" encoding="UTF-8" standalone="no"?>
<svg
xmlns:svg="http://www.w3.org/2000/svg"
xmlns="http://www.w3.org/2000/svg"
version="1.0"
width="1280" height="1024" viewBox=" 6097.788618 -3020.449253 0.000000 0.000000 ">
<style type="text/css"><![CDATA[.surface{stroke:black;stroke-width:0.001in;fill:orange;}.parcel{stroke:blue;stroke-width:0.01in;fill:none;}.planFeature{stroke:cyan;stroke-width:0.01in;fill:none;}.alignment{stroke:blue;stroke-width:0.02in;fill:none;}.cgpoint{fill:cyan;}.cgpointtext{font-family:'Verdana';font-size:8;}]]></style><g id="AlignmentSet_" class="alignment">
<g>
<path d="M 6236.632236,-4031.978998 L 6713.990187,-4209.709105 L 6713.990187,-4209.709105 L 6723.364117,-4213.191835 L 6732.752397,-4216.635650 L 6742.168896,-4220.001461 L 6751.626502,-4223.249830 L 6761.136643,-4226.340835 L 6770.708770,-4229.233946 L 6780.349840,-4231.887953 L 6790.063794,-4234.260944 L 6799.851013,-4236.310343 L 6809.707770,-4237.993033 L 6819.625680,-4239.265553 L 6829.591149,-4240.084397 L 6839.584844,-4240.406428 L 6849.581185,-4240.189402 L 6859.547882,-4239.392628 L 6869.445545,-4237.977751 L 6879.227372,-4235.909687 L 6888.838960,-4233.157684 L 6898.218266,-4229.696526 L 6907.295708,-4225.507866 L 7305.211054,-4021.821888 ">
</path>
</g>
<g>
<path d="M 6116.198132,-4422.653308 A 287.577551,287.577551 0 0,1 6267.455433,-4611.462329 L 6267.455433,-4611.462329 L 6298.090585,-4624.568208 L 6329.982298,-4634.228091 L 6362.708279,-4640.514339 L 6395.895521,-4643.550647 L 6429.222825,-4643.500426 L 6462.421279,-4640.556221 L 6495.273108,-4634.930377 L 6527.609360,-4626.847036 L 6559.306682,-4616.535483 L 6590.283519,-4604.224824 L 6620.495996,-4590.139896 L 6649.933663,-4574.498324 L 6678.615264,-4557.508605 L 6706.584636,-4539.369074 L 6733.906811,-4520.267650 L 6760.664363,-4500.382222 L 6786.953999,-4479.881571 L 6812.883404,-4458.926707 L 6838.568289,-4437.672543 L 6864.129525,-4416.269872 L 6864.129519,-4416.269864 L 6889.721776,-4394.841319 L 6915.438037,-4373.561898 L 6941.399699,-4352.582871 L 6967.722865,-4332.059732 L 6994.515574,-4312.154103 L 7021.874822,-4293.035418 L 7049.883369,-4274.882284 L 7078.606329,-4257.883382 L 7108.087487,-4242.237863 L 7138.345374,-4228.155079 L 7169.369139,-4215.853541 L 7201.114295,-4205.558978 L 7233.498434,-4197.501357 L 7266.397088,-4191.910761 L 7299.639918,-4189.012005 L 7333.007484,-4189.017930 L 7366.228912,-4192.121319 L 7398.980784,-4198.485486 L 7430.887668,-4208.233606 L 7461.524569,-4221.436955 A 287.230489,287.230489 0 0,0 7564.878086,-4647.760704 ">
</path>
</g>
<g>
<path d="M 6097.788618,-5044.502060 A 482.088445,482.088445 0 0,1 6183.280766,-5084.335922 L 6183.280766,-5084.335922 L 6192.747972,-5087.555954 L 6202.276806,-5090.588818 L 6211.860612,-5093.443277 L 6221.493267,-5096.128327 L 6231.169165,-5098.653169 L 6240.883187,-5101.027185 L 6250.630666,-5103.259909 L 6260.407374,-5105.361012 L 6270.209485,-5107.340277 L 6280.033547,-5109.207589 L 6289.876457,-5110.972913 L 6299.735424,-5112.646285 L 6309.607942,-5114.237799 L 6319.491761,-5115.757598 L 6329.384852,-5117.215863 L 6339.285376,-5118.622805 L 6349.191656,-5119.988662 L 6359.102139,-5121.323691 L 6369.015373,-5122.638159 L 6378.929930,-5123.942340 L 7262.698164,-5240.039804 L 7262.698164,-5240.039804 L 7272.613179,-5241.340764 L 7282.529376,-5242.632668 L 7292.447916,-5243.906457 L 7302.369905,-5245.153067 L 7312.296379,-5246.363422 L 7322.228276,-5247.528437 L 7332.166403,-5248.639012 L 7342.111423,-5249.686031 L 7352.063821,-5250.660362 L 7362.023884,-5251.552858 L 7371.991677,-5252.354356 L 7381.967010,-5253.055679 L 7391.949422,-5253.647639 L 7401.938149,-5254.121045 L 7411.932102,-5254.466701 L 7421.929843,-5254.675423 L 7431.929554,-5254.738037 L 7441.929021,-5254.645400 L 7451.925602,-5254.388403 L 7461.916169,-5253.957995 A 547.485628,547.485628 0 0,1 7966.135533,-4833.612720 ">
</path>
</g>
<g>
<path d="M 6311.753743,-3799.793594 L 6642.794440,-3893.648081 A 913.945625,913.945625 0 0,1 7178.552309,-3882.248124 L 7661.465062,-3722.851504 ">
</path>
</g>
<g>
<path d="M 6381.627203,-3349.164161 L 6629.651542,-3458.227907 L 6629.651542,-3458.227907 L 6638.806082,-3462.252134 L 6647.963494,-3466.269820 L 6657.126636,-3470.274420 L 6666.298336,-3474.259375 L 6675.481382,-3478.218108 L 6684.678508,-3482.144019 L 6693.892374,-3486.030477 L 6703.125553,-3489.870816 L 6712.380523,-3493.658331 L 6721.659647,-3497.386270 L 6730.965158,-3501.047833 L 6740.299146,-3504.636168 L 6749.663544,-3508.144365 L 6759.060108,-3511.565454 L 6768.490407,-3514.892406 L 6777.955804,-3518.118129 L 6787.457441,-3521.235464 L 6796.996223,-3524.237194 L 6806.572802,-3527.116035 L 6816.187526,-3529.864635 A 700.000000,700.000000 0 0,1 7429.239234,-3411.416149 L 7429.239234,-3411.416149 L 7437.138074,-3405.283718 L 7444.952970,-3399.044652 L 7452.687012,-3392.705621 L 7460.343516,-3386.273143 L 7467.926013,-3379.753579 L 7475.438230,-3373.153144 L 7482.884074,-3366.477915 L 7490.267616,-3359.733830 L 7497.593086,-3352.926702 L 7504.864849,-3346.062225 L 7512.087397,-3339.145980 L 7519.265339,-3332.183444 L 7526.403379,-3325.180003 L 7533.506315,-3318.140958 L 7540.579021,-3311.071534 L 7547.626435,-3303.976894 L 7554.653552,-3296.862147 L 7561.665407,-3289.732356 L 7568.667070,-3282.592556 L 7575.663607,-3275.447781 L 7825.855540,-3019.893999 ">
</path>
</g>
<g>
<path d="M 7614.537975,-4002.288837 A 101.949226,101.949226 0 0,1 7812.092296,-4007.416453 L 7812.092296,-4007.416453 L 7813.259693,-4002.555927 L 7814.057672,-3997.621152 L 7814.501442,-3992.641892 L 7814.608557,-3987.643933 L 7814.398335,-3982.649144 L 7813.891341,-3977.675606 L 7813.108950,-3972.737804 L 7812.072967,-3967.846830 L 7810.805323,-3963.010638 L 7809.327828,-3958.234300 L 7807.661987,-3953.520276 L 7805.828865,-3948.868684 L 7803.849000,-3944.277573 L 7801.742366,-3939.743180 L 7799.528360,-3935.260191 L 7797.225832,-3930.821980 L 7794.853137,-3926.420852 L 7792.428207,-3922.048265 L 7789.968645,-3917.695049 L 7787.491833,-3913.351637 L 7787.491818,-3913.351641 L 7785.975644,-3910.665475 L 7784.485779,-3907.964626 L 7783.020969,-3905.250106 L 7781.579938,-3902.522887 L 7780.161387,-3899.783907 L 7778.763999,-3897.034067 L 7777.386438,-3894.274241 L 7776.027351,-3891.505269 L 7774.685372,-3888.727964 L 7773.359119,-3885.943115 L 7772.047200,-3883.151484 L 7770.748211,-3880.353812 L 7769.460739,-3877.550821 L 7768.183362,-3874.743214 L 7766.914651,-3871.931680 L 7765.653171,-3869.116895 L 7764.397482,-3866.299520 L 7763.146139,-3863.480213 L 7761.897696,-3860.659620 L 7760.650707,-3857.838396 ">
</path>
</g>
</g>
</svg>
